<svg width="26" height="26" viewBox="0 0 26 26" fill="none" xmlns="http://www.w3.org/2000/svg">
<path d="M16.0861 13.0005L25.7429 3.34378C26.0857 3.00085 26.0857 2.44592 25.7429 2.1031L23.8973 0.256758C23.7329 0.0924893 23.5099 0 23.2771 0C23.0442 0 22.8211 0.0924893 22.6568 0.256758L13 9.91425L3.34327 0.256758C3.1789 0.0924893 2.95584 0 2.72297 0C2.49015 0 2.26704 0.0924893 2.10273 0.256758L0.257179 2.1031C-0.0857263 2.44592 -0.0857263 3.00085 0.257179 3.34378L9.91393 13.0006L0.258138 22.6562C-0.0845977 22.9991 -0.0845977 23.5541 0.258138 23.8969L2.1038 25.7432C2.26806 25.9075 2.49117 26 2.72404 26C2.95691 26 3.17997 25.9075 3.3444 25.7432L13 16.0869L22.6556 25.7432C22.82 25.9075 23.043 26 23.2759 26C23.5088 26 23.7319 25.9075 23.8961 25.7432L25.7418 23.8969C26.0845 23.5541 26.0845 22.9991 25.7418 22.6562L16.0861 13.0005Z" fill="white" fill-opacity="0.71"/>
</svg>
