<svg width="26" height="23" viewBox="0 0 26 23" fill="none" xmlns="http://www.w3.org/2000/svg">
<path d="M12.9259 15.9433C12.7051 15.9433 12.494 15.8512 12.3421 15.6889L6.68764 9.65875C6.19759 9.13686 6.56163 8.26852 7.2714 8.26852H10.2333V1.96424C10.2333 1.20883 10.8375 0.59375 11.5796 0.59375H14.2722C15.0142 0.59375 15.6185 1.20883 15.6185 1.96424V8.26852H18.5803C19.2901 8.26852 19.6541 9.13686 19.1641 9.65875L13.5096 15.6889C13.3577 15.8512 13.1466 15.9433 12.9259 15.9433Z" fill="#FFB800"/>
<path d="M23.9668 22.4062H1.88503C0.845571 22.4062 0 21.6135 0 20.639V20.1341C0 19.1596 0.845571 18.3669 1.88503 18.3669H23.9668C25.0063 18.3669 25.8519 19.1596 25.8519 20.1341V20.639C25.8519 21.6135 25.0063 22.4062 23.9668 22.4062Z" fill="#FFB800"/>
</svg>
