<svg width="51" height="51" viewBox="0 0 51 51" fill="none" xmlns="http://www.w3.org/2000/svg">
<path d="M25.5 0C11.494 0 0 11.494 0 25.5C0 37.452 8.38664 48.309 19.5234 51V42.5636C18.42 42.8052 17.4044 42.8122 16.2811 42.4811C14.7741 42.0363 13.5496 41.0324 12.6407 39.5017C12.0613 38.5243 11.0345 37.4644 9.96327 37.5422L9.70063 34.5656C12.0169 34.3672 14.0208 35.9769 15.2103 37.9753C15.7387 38.864 16.3468 39.385 17.1274 39.6153C17.8818 39.8375 18.6919 39.7309 19.6359 39.3975C19.8728 37.5076 20.7386 36.8002 21.3927 35.8041V35.8026C14.7507 34.8119 12.1037 31.2882 11.0531 28.507C9.66094 24.814 10.408 20.2005 12.8698 17.285C12.9177 17.2281 13.0041 17.0795 12.9706 16.9756C11.8418 13.5659 13.2173 10.7454 13.2679 10.4461C14.5706 10.8314 14.7823 10.0586 18.9266 12.5765L19.6429 13.0068C19.9425 13.1854 19.8483 13.0835 20.1479 13.0609C21.8783 12.5909 23.7024 12.3313 25.4996 12.308C27.3105 12.3313 29.1229 12.5909 30.9248 13.08L31.1567 13.1033C31.1365 13.1002 31.2198 13.0885 31.3594 13.0052C36.5364 9.8695 36.3504 10.8944 37.7387 10.443C37.7889 10.7426 39.1461 13.6091 38.0294 16.9756C37.8788 17.4394 42.5176 21.6872 39.9465 28.5058C38.8959 31.2882 36.2493 34.8119 29.6073 35.8026V35.8041C30.4587 37.1018 31.4816 37.792 31.4762 40.469V51C42.6134 48.309 50.9996 37.452 50.9996 25.5C51 11.494 39.506 0 25.5 0V0Z" fill="white" fill-opacity="0.71"/>
</svg>
