<svg width="51" height="51" viewBox="0 0 51 51" fill="none" xmlns="http://www.w3.org/2000/svg">
<path d="M30.3809 25.5C30.3809 28.1957 28.1957 30.3809 25.5 30.3809C22.8043 30.3809 20.6191 28.1957 20.6191 25.5C20.6191 22.8043 22.8043 20.6191 25.5 20.6191C28.1957 20.6191 30.3809 22.8043 30.3809 25.5Z" fill="white" fill-opacity="0.71"/>
<path d="M36.9147 16.8643C36.6801 16.2286 36.3058 15.6531 35.8194 15.1807C35.347 14.6943 34.7719 14.32 34.1358 14.0854C33.6198 13.885 32.8447 13.6465 31.4171 13.5815C29.8728 13.5111 29.4098 13.4959 25.5001 13.4959C21.59 13.4959 21.127 13.5107 19.5831 13.5811C18.1555 13.6465 17.38 13.885 16.8644 14.0854C16.2282 14.32 15.6528 14.6943 15.1808 15.1807C14.6944 15.6531 14.3201 16.2282 14.0851 16.8643C13.8847 17.3803 13.6462 18.1558 13.5812 19.5834C13.5108 21.1273 13.4956 21.5903 13.4956 25.5004C13.4956 29.4101 13.5108 29.8731 13.5812 31.4174C13.6462 32.845 13.8847 33.6201 14.0851 34.1361C14.3201 34.7722 14.694 35.3473 15.1804 35.8197C15.6528 36.3061 16.2279 36.6804 16.864 36.915C17.38 37.1158 18.1555 37.3543 19.5831 37.4193C21.127 37.4897 21.5896 37.5045 25.4997 37.5045C29.4101 37.5045 29.8732 37.4897 31.4167 37.4193C32.8443 37.3543 33.6198 37.1158 34.1358 36.915C35.4128 36.4224 36.4221 35.4131 36.9147 34.1361C37.1151 33.6201 37.3536 32.845 37.419 31.4174C37.4894 29.8731 37.5042 29.4101 37.5042 25.5004C37.5042 21.5903 37.4894 21.1273 37.419 19.5834C37.354 18.1558 37.1155 17.3803 36.9147 16.8643ZM25.5001 33.019C21.3472 33.019 17.9808 29.6529 17.9808 25.5C17.9808 21.3472 21.3472 17.9811 25.5001 17.9811C29.6526 17.9811 33.019 21.3472 33.019 25.5C33.019 29.6529 29.6526 33.019 25.5001 33.019ZM33.3163 19.441C32.3459 19.441 31.5591 18.6542 31.5591 17.6838C31.5591 16.7134 32.3459 15.9266 33.3163 15.9266C34.2867 15.9266 35.0735 16.7134 35.0735 17.6838C35.0731 18.6542 34.2867 19.441 33.3163 19.441Z" fill="white" fill-opacity="0.71"/>
<path d="M25.5 0C11.4189 0 0 11.4189 0 25.5C0 39.5811 11.4189 51 25.5 51C39.5811 51 51 39.5811 51 25.5C51 11.4189 39.5811 0 25.5 0ZM40.0543 31.5369C39.9834 33.0956 39.7356 34.1598 39.3737 35.0913C38.613 37.0582 37.0582 38.613 35.0913 39.3737C34.1602 39.7356 33.0956 39.983 31.5373 40.0543C29.9758 40.1255 29.477 40.1426 25.5004 40.1426C21.5234 40.1426 21.025 40.1255 19.4631 40.0543C17.9048 39.983 16.8402 39.7356 15.9091 39.3737C14.9317 39.006 14.0469 38.4298 13.3154 37.6846C12.5706 36.9535 11.9944 36.0683 11.6267 35.0913C11.2648 34.1602 11.017 33.0956 10.9461 31.5373C10.8742 29.9754 10.8574 29.4766 10.8574 25.5C10.8574 21.5234 10.8742 21.0246 10.9457 19.4631C11.0166 17.9044 11.264 16.8402 11.6259 15.9087C11.9936 14.9317 12.5702 14.0465 13.3154 13.3154C14.0465 12.5702 14.9317 11.994 15.9087 11.6263C16.8402 11.2644 17.9044 11.017 19.4631 10.9457C21.0246 10.8745 21.5234 10.8574 25.5 10.8574C29.4766 10.8574 29.9754 10.8745 31.5369 10.9461C33.0956 11.017 34.1598 11.2644 35.0913 11.6259C36.0683 11.9936 36.9535 12.5702 37.685 13.3154C38.4298 14.0469 39.0064 14.9317 39.3737 15.9087C39.736 16.8402 39.9834 17.9044 40.0546 19.4631C40.1258 21.0246 40.1426 21.5234 40.1426 25.5C40.1426 29.4766 40.1258 29.9754 40.0543 31.5369Z" fill="white" fill-opacity="0.71"/>
</svg>
