<svg width="50" height="50" viewBox="0 0 50 50" fill="none" xmlns="http://www.w3.org/2000/svg">
<path d="M25.0212 20.8335C22.7201 20.8335 20.8545 22.6991 20.8545 25.0002C20.8545 27.3012 22.7201 29.1668 25.0212 29.1668C27.3226 29.1668 29.1878 27.3012 29.1878 25.0002C29.1854 22.7 27.3214 20.8363 25.0212 20.8335ZM25.0212 27.5002C23.6405 27.5002 22.5212 26.3808 22.5212 25.0002C22.5212 23.6195 23.6405 22.5002 25.0212 22.5002C26.4022 22.5002 27.5212 23.6195 27.5212 25.0002C27.5212 26.3808 26.4022 27.5002 25.0212 27.5002Z" fill="url(#paint0_linear)"/>
<path d="M39.5214 25C40.7739 23.9412 41.9641 22.8109 43.0863 21.615C46.6503 17.76 47.8914 14.6073 46.6748 12.5C44.9247 9.47266 39.0462 10.0342 32.2745 12.441C30.9704 5.37354 28.5164 0 25.0211 0C21.5262 0 19.0722 5.37354 17.7714 12.4418C10.9997 10.035 5.11876 9.47347 3.37112 12.5C2.15449 14.6073 3.39554 17.76 6.95959 21.615C8.081 22.8109 9.26997 23.9408 10.5212 25C9.26875 26.0588 8.07856 27.1891 6.95633 28.385C3.39472 32.24 2.15368 35.3927 3.37031 37.5C4.20364 38.9449 5.97977 39.5723 8.34468 39.5723C11.5751 39.4141 14.7587 38.7337 17.7714 37.5574C19.0722 44.6265 21.5262 50 25.0211 50C28.5164 50 30.9704 44.6265 32.2713 37.5582C35.284 38.7337 38.4672 39.4141 41.6971 39.5723C44.0612 39.5723 45.8369 38.9441 46.6715 37.5C47.8881 35.3927 46.6471 32.24 43.083 28.385C41.9616 27.1891 40.7727 26.0592 39.5214 25ZM45.2315 13.3333C46.0115 14.6851 44.7522 17.3584 41.8632 20.4834C40.7189 21.7008 39.5031 22.8483 38.2214 23.9201C36.6829 22.6827 35.0073 21.4559 33.2088 20.2673C33.0782 18.1576 32.8588 16.0791 32.5553 14.1007C39.2712 11.6899 44.1678 11.4998 45.2286 13.3333H45.2315ZM28.3544 30.7735C27.2245 31.4246 26.1136 32.0304 25.0211 32.5916C23.9302 32.0317 22.819 31.4254 21.6878 30.7735C20.5721 30.129 19.4954 29.4617 18.4464 28.785C18.3854 27.5635 18.3544 26.3017 18.3544 25C18.3544 23.6983 18.3854 22.4365 18.4464 21.215C19.4954 20.5383 20.5721 19.871 21.6878 19.2265C22.8169 18.575 23.9282 17.9692 25.0211 17.4093C26.1128 17.9708 27.2261 18.5758 28.3544 19.2265C29.4706 19.871 30.5472 20.5383 31.5962 21.215C31.6573 22.4365 31.6878 23.6983 31.6878 25C31.6878 26.3017 31.6573 27.5635 31.5962 28.785C30.5472 29.4617 29.4706 30.129 28.3544 30.7735ZM31.4656 30.8476C31.3439 32.415 31.1755 33.9026 30.9655 35.2999C29.6504 34.7807 28.2771 34.1825 26.8579 33.5034C27.6411 33.0868 28.4195 32.6591 29.1853 32.2176C29.9511 31.7757 30.7206 31.3118 31.4656 30.8476ZM23.1823 33.5002C21.7655 34.1785 20.3898 34.7774 19.0747 35.2966C18.8671 33.8993 18.6987 32.4117 18.5746 30.8443C19.3196 31.3082 20.0789 31.7647 20.852 32.2144C21.6206 32.6591 22.3986 33.0835 23.1823 33.5002ZM16.7354 27.644C15.4671 26.7757 14.2696 25.8944 13.142 25C14.2667 24.1073 15.4642 23.2247 16.7354 22.3527C16.7053 23.2357 16.6878 24.1199 16.6878 25C16.6878 25.8801 16.7053 26.7643 16.7354 27.6473V27.644ZM18.577 19.1492C18.6987 17.5826 18.8671 16.0958 19.0771 14.6993C20.3906 15.2177 21.7622 15.8167 23.1795 16.4941C22.3974 16.9096 21.6231 17.3381 20.8573 17.7791C20.0805 18.2292 19.3204 18.6869 18.577 19.1524V19.1492ZM26.8623 16.4998C28.2788 15.8215 29.6537 15.2234 30.968 14.7042C31.1755 16.1015 31.3439 17.5891 31.4681 19.1565C30.7214 18.6894 29.9613 18.2312 29.1878 17.7824C28.4228 17.3409 27.6456 16.9165 26.8623 16.4998ZM33.3072 22.3568C34.5756 23.2243 35.7731 24.1056 36.9006 25C35.7759 25.8923 34.5784 26.7749 33.3072 27.6473C33.3369 26.7643 33.3544 25.8801 33.3544 25C33.3544 24.1199 33.3369 23.2357 33.3072 22.3527V22.3568ZM25.0211 1.66667C27.1423 1.66667 29.4246 6.00586 30.6921 13.029C28.8273 13.7549 26.9165 14.6049 25.0256 15.5477C23.1306 14.6049 21.2186 13.7549 19.3587 13.029C20.618 6.00667 22.9003 1.66667 25.0211 1.66667ZM8.18232 20.4834C5.29292 17.3584 4.03397 14.6851 4.814 13.3333C5.28478 12.5183 6.50955 12.1025 8.31375 12.1025C11.4603 12.2681 14.5593 12.9435 17.4898 14.1024C17.1862 16.0775 16.9673 18.1551 16.8363 20.2641C15.0378 21.4526 13.3622 22.6807 11.8237 23.9168C10.5423 22.8463 9.32612 21.6996 8.18232 20.4834ZM4.814 36.6667C4.03397 35.3149 5.29292 32.6416 8.18232 29.5166C9.32612 28.2992 10.5419 27.1517 11.8237 26.0799C13.3622 27.3173 15.0378 28.5441 16.8363 29.7327C16.9673 31.8424 17.1862 33.9209 17.4898 35.8993C10.7714 38.3101 5.87479 38.5002 4.814 36.6667ZM25.0211 48.3333C22.9003 48.3333 20.6188 43.9941 19.3546 36.9718C21.2186 36.2459 23.1306 35.3959 25.0256 34.4535C26.9205 35.3959 28.8321 36.2459 30.6962 36.9718C29.4238 43.9941 27.1423 48.3333 25.0211 48.3333ZM45.2286 36.6667C44.1687 38.5002 39.2688 38.3101 32.5528 35.8968C32.8564 33.9209 33.0753 31.8424 33.2063 29.7298C35.0048 28.5417 36.6805 27.3132 38.2189 26.0775C39.5007 27.1488 40.7165 28.2967 41.8603 29.5142C44.7497 32.6416 46.0087 35.3149 45.2286 36.6667Z" fill="url(#paint1_linear)"/>
<defs>
<linearGradient id="paint0_linear" x1="25.0214" y1="49.6285" x2="25.0214" y2="-2.72984" gradientUnits="userSpaceOnUse">
<stop stop-color="#006DF0"/>
<stop offset="1" stop-color="#00E7F0"/>
</linearGradient>
<linearGradient id="paint1_linear" x1="25.0213" y1="49.6283" x2="25.0213" y2="-2.73" gradientUnits="userSpaceOnUse">
<stop stop-color="#006DF0"/>
<stop offset="1" stop-color="#00E7F0"/>
</linearGradient>
</defs>
</svg>
