<svg width="51" height="51" viewBox="0 0 51 51" fill="none" xmlns="http://www.w3.org/2000/svg">
<path d="M25.5 0C11.4189 0 0 11.4189 0 25.5C0 39.5811 11.4189 51 25.5 51C39.5811 51 51 39.5811 51 25.5C51 11.4189 39.5811 0 25.5 0ZM37.143 19.8822C37.1543 20.1332 37.1597 20.3853 37.1597 20.6386C37.1597 28.3727 31.2727 37.2913 20.5067 37.2916H20.5071H20.5067C17.2013 37.2916 14.1255 36.3228 11.5352 34.6625C11.9932 34.7166 12.4593 34.7434 12.9313 34.7434C15.6737 34.7434 18.1974 33.808 20.2009 32.238C17.6386 32.1906 15.4784 30.4984 14.7328 28.1727C15.0897 28.2412 15.4566 28.2786 15.8328 28.2786C16.3671 28.2786 16.8846 28.2066 17.3764 28.0723C14.6982 27.5362 12.6807 25.1693 12.6807 22.3351C12.6807 22.3086 12.6807 22.2849 12.6815 22.2604C13.4702 22.6989 14.3722 22.9627 15.3325 22.9923C13.7609 21.9436 12.7278 20.1511 12.7278 18.1203C12.7278 17.048 13.0177 16.0433 13.5204 15.1784C16.4068 18.7199 20.7203 21.0491 25.5848 21.2938C25.4844 20.8651 25.4327 20.4184 25.4327 19.9592C25.4327 16.7281 28.054 14.1068 31.2863 14.1068C32.9699 14.1068 34.4905 14.8185 35.5586 15.9562C36.892 15.6931 38.1442 15.206 39.2753 14.5356C38.8375 15.9017 37.9099 17.048 36.7014 17.7729C37.8854 17.6312 39.0138 17.3172 40.0624 16.8511C39.2792 18.025 38.2858 19.0561 37.143 19.8822Z" fill="white" fill-opacity="0.71"/>
</svg>
